<?xml version="1.0" encoding="UTF-8" standalone="no"?>
<!-- Created with Inkscape (http://www.inkscape.org/) -->

<svg
   xmlns:dc="http://purl.org/dc/elements/1.1/"
   xmlns:cc="http://creativecommons.org/ns#"
   xmlns:rdf="http://www.w3.org/1999/02/22-rdf-syntax-ns#"
   xmlns:svg="http://www.w3.org/2000/svg"
   xmlns="http://www.w3.org/2000/svg"
   xmlns:sodipodi="http://sodipodi.sourceforge.net/DTD/sodipodi-0.dtd"
   xmlns:inkscape="http://www.inkscape.org/namespaces/inkscape"
   width="210mm"
   height="297mm"
   viewBox="0 0 744.09448819 1052.3622047"
   id="svg4163"
   version="1.1"
   inkscape:version="0.91 r13725"
   sodipodi:docname="one.svg">
  <sodipodi:namedview
     id="base"
     pagecolor="#ffffff"
     bordercolor="#666666"
     borderopacity="1.0"
     inkscape:pageopacity="0.0"
     inkscape:pageshadow="2"
     inkscape:zoom="1.1395821"
     inkscape:cx="146.09089"
     inkscape:cy="474.65345"
     inkscape:document-units="px"
     inkscape:current-layer="layer1"
     showgrid="false"
     inkscape:window-width="1920"
     inkscape:window-height="1017"
     inkscape:window-x="1672"
     inkscape:window-y="-8"
     inkscape:window-maximized="1" />
  <defs
     id="defs4165" />
  <metadata
     id="metadata4168">
    <rdf:RDF>
      <cc:Work
         rdf:about="">
        <dc:format>image/svg+xml</dc:format>
        <dc:type
           rdf:resource="http://purl.org/dc/dcmitype/StillImage" />
        <dc:title></dc:title>
      </cc:Work>
    </rdf:RDF>
  </metadata>
  <g
     id="layer1"
     inkscape:groupmode="layer"
     inkscape:label="Layer 1">
    <g
       id="g5565"
       transform="translate(0,-0.79999529)"
       style="stroke:#000000;stroke-width:1.60000002;stroke-miterlimit:4;stroke-dasharray:none;stroke-opacity:1">
      <path
         style="opacity:1;fill:#ffffff;fill-opacity:1;stroke:#000000;stroke-width:1.60000002;stroke-linejoin:miter;stroke-miterlimit:4;stroke-dasharray:none;stroke-opacity:1"
         d="M 600,558.68328 A 200,123.67892 0 0 1 400,682.3622 200,123.67892 0 0 1 200,558.68328 200,123.67892 0 0 1 400,435.00436 200,123.67892 0 0 1 600,558.68328 Z"
         id="path4983-9"
         inkscape:connector-curvature="0" />
    </g>
    <ellipse
       style="opacity:1;fill:#000000;fill-opacity:1;stroke:#fa0000;stroke-width:0;stroke-linejoin:miter;stroke-miterlimit:4;stroke-dasharray:none;stroke-opacity:1"
       id="path5478-0"
       cx="400"
       cy="558.68329"
       rx="149.99998"
       ry="92.759186" />
    <ellipse
       style="opacity:1;fill:#f2f2f2;fill-opacity:1;stroke:#fa0000;stroke-width:0;stroke-linejoin:miter;stroke-miterlimit:4;stroke-dasharray:none;stroke-opacity:1"
       id="path5480-4"
       cx="400"
       cy="558.68329"
       rx="124.99999"
       ry="77.299324" />
    <flowRoot
       xml:space="preserve"
       id="flowRoot5482-9"
       style="font-style:normal;font-variant:normal;font-weight:bold;font-stretch:normal;font-size:40px;line-height:125%;font-family:sans-serif;-inkscape-font-specification:'sans-serif Bold';letter-spacing:0px;word-spacing:0px;fill:#000000;fill-opacity:1;stroke:none;stroke-width:1px;stroke-linecap:butt;stroke-linejoin:miter;stroke-opacity:1"
       transform="matrix(1,0,0,0.61839461,4.9999999e-6,278.94493)"><flowRegion
         id="flowRegion5484-4"><rect
           id="rect5486-8"
           width="188"
           height="198"
           x="213"
           y="199.36218"
           style="font-style:normal;font-variant:normal;font-weight:bold;font-stretch:normal;font-family:sans-serif;-inkscape-font-specification:'sans-serif Bold'" /></flowRegion><flowPara
         id="flowPara5488-9" /></flowRoot>    <text
       xml:space="preserve"
       style="font-style:normal;font-variant:normal;font-weight:bold;font-stretch:normal;font-size:176.93565369px;line-height:125%;font-family:sans-serif;-inkscape-font-specification:'sans-serif Bold';letter-spacing:0px;word-spacing:0px;fill:#000000;fill-opacity:1;stroke:none;stroke-width:1px;stroke-linecap:butt;stroke-linejoin:miter;stroke-opacity:1"
       x="253.73219"
       y="770.45038"
       id="text5490-5"
       sodipodi:linespacing="125%"
       transform="scale(1.2716487,0.7863807)"><tspan
         sodipodi:role="line"
         id="tspan5492-3"
         x="253.73219"
         y="770.45038"
         style="font-style:normal;font-variant:normal;font-weight:bold;font-stretch:normal;font-size:176.93565369px;font-family:sans-serif;-inkscape-font-specification:'sans-serif Bold'">5</tspan></text>
    <g
       id="g5494"
       transform="matrix(1,0,0,0.61839461,-2.1361929e-6,248.94493)"
       style="stroke:#000000;stroke-opacity:1;stroke-width:1.52597844;stroke-miterlimit:4;stroke-dasharray:none">
      <path
         style="opacity:1;fill:#ffffff;fill-opacity:1;stroke:#000000;stroke-width:1.52597844;stroke-linejoin:miter;stroke-miterlimit:4;stroke-dasharray:none;stroke-opacity:1"
         d="m 600,452.36221 a 200,200 0 0 1 -200,200 200,200 0 0 1 -200,-200 200,200 0 0 1 200,-200 200,200 0 0 1 200,200 z"
         id="path4983"
         inkscape:connector-curvature="0" />
      <path
         style="opacity:1;fill:#000000;fill-opacity:1;stroke:#000000;stroke-width:1.52597844;stroke-linejoin:miter;stroke-miterlimit:4;stroke-dasharray:none;stroke-opacity:1"
         d="m 583.4308,532.0375 c 0,0 -22.70437,39.3504 -22.70437,39.3504 0,0 -39.81844,-30.23848 -39.81844,-30.23848 0,0 16.56666,-28.80733 16.56666,-28.80733 0,0 45.95615,19.69541 45.95615,19.69541 M 422.7145,651.05423 c 0,0 -45.429,0 -45.429,0 0,0 5.5526,-49.68946 5.5526,-49.68946 0,0 34.3238,0 34.3238,0 0,0 5.5526,49.68946 5.5526,49.68946 M 239.27357,571.3879 c 0,0 -22.70437,-39.3504 -22.70437,-39.3504 0,0 45.95615,-19.69541 45.95615,-19.69541 0,0 16.56666,28.80733 16.56666,28.80733 0,0 -39.81844,30.23848 -39.81844,30.23848 M 216.5692,372.68692 c 0,0 22.70437,-39.3504 22.70437,-39.3504 0,0 39.81844,30.23848 39.81844,30.23848 0,0 -16.56666,28.80733 -16.56666,28.80733 0,0 -45.95615,-19.69541 -45.95615,-19.69541 M 377.2855,253.67019 c 0,0 45.429,0 45.429,0 0,0 -5.5526,49.68946 -5.5526,49.68946 0,0 -34.3238,0 -34.3238,0 0,0 -5.5526,-49.68946 -5.5526,-49.68946 m 183.44093,79.66633 c 0,0 22.70437,39.3504 22.70437,39.3504 0,0 -45.95615,19.69541 -45.95615,19.69541 0,0 -16.56666,-28.80733 -16.56666,-28.80733 0,0 39.81844,-30.23848 39.81844,-30.23848"
         id="path7249"
         inkscape:connector-curvature="0" />
      <circle
         r="149.99998"
         cy="452.36221"
         cx="400"
         id="path5478"
         style="opacity:1;fill:#000000;fill-opacity:1;stroke:#000000;stroke-width:1.52597844;stroke-linejoin:miter;stroke-miterlimit:4;stroke-dasharray:none;stroke-opacity:1" />
      <circle
         r="124.99999"
         cy="452.36218"
         cx="400"
         id="path5480"
         style="opacity:1;fill:#f2f2f2;fill-opacity:1;stroke:#000000;stroke-width:1.52597844;stroke-linejoin:miter;stroke-miterlimit:4;stroke-dasharray:none;stroke-opacity:1" />
      <flowRoot
         style="font-style:normal;font-variant:normal;font-weight:bold;font-stretch:normal;font-size:40px;line-height:125%;font-family:sans-serif;-inkscape-font-specification:'sans-serif Bold';letter-spacing:0px;word-spacing:0px;fill:#000000;fill-opacity:1;stroke:#000000;stroke-width:1.52597844;stroke-linecap:butt;stroke-linejoin:miter;stroke-opacity:1;stroke-miterlimit:4;stroke-dasharray:none"
         id="flowRoot5482"
         xml:space="preserve"><flowRegion
           id="flowRegion5484"><rect
             style="font-style:normal;font-variant:normal;font-weight:bold;font-stretch:normal;font-family:sans-serif;-inkscape-font-specification:'sans-serif Bold';stroke:#000000;stroke-opacity:1;stroke-width:1.52597844;stroke-miterlimit:4;stroke-dasharray:none"
             y="199.36218"
             x="213"
             height="198"
             width="188"
             id="rect5486" /></flowRegion><flowPara
           id="flowPara5488" /></flowRoot>      <text
         sodipodi:linespacing="125%"
         id="text5490"
         y="528.66309"
         x="322.6582"
         style="font-style:normal;font-variant:normal;font-weight:bold;font-stretch:normal;font-size:225px;line-height:125%;font-family:sans-serif;-inkscape-font-specification:'sans-serif Bold';letter-spacing:0px;word-spacing:0px;fill:#000000;fill-opacity:1;stroke:#000000;stroke-width:1.52597845;stroke-linecap:butt;stroke-linejoin:miter;stroke-miterlimit:4;stroke-dasharray:none;stroke-opacity:1"
         xml:space="preserve"><tspan
           style="font-style:normal;font-variant:normal;font-weight:bold;font-stretch:normal;font-size:225px;font-family:sans-serif;-inkscape-font-specification:'sans-serif Bold';stroke:#000000;stroke-width:1.52597845;stroke-miterlimit:4;stroke-dasharray:none;stroke-opacity:1"
           y="528.66309"
           x="322.6582"
           id="tspan5492"
           sodipodi:role="line">1</tspan></text>
    </g>
    <rect
       style="opacity:1;fill:#ff0000;fill-opacity:0;stroke:none;stroke-width:0;stroke-linejoin:miter;stroke-miterlimit:4;stroke-dasharray:none;stroke-opacity:1"
       id="rect5570"
       width="44.095161"
       height="28.958019"
       x="377.87976"
       y="651.77673" />
    <rect
       style="opacity:1;fill:#e6e6e6;fill-opacity:1;stroke:none;stroke-width:0;stroke-linejoin:miter;stroke-miterlimit:4;stroke-dasharray:none;stroke-opacity:1"
       id="rect5572"
       width="0.54844666"
       height="0.32906801"
       x="388.19055"
       y="692.91022"
       ry="0.164534" />
    <rect
       style="opacity:1;fill:#e6e6e6;fill-opacity:1;stroke:none;stroke-width:0;stroke-linejoin:miter;stroke-miterlimit:4;stroke-dasharray:none;stroke-opacity:1"
       id="rect5574"
       width="1.974408"
       height="0.21937867"
       x="333.89435"
       y="691.04553" />
    <rect
       style="opacity:1;fill:#ffffff;fill-opacity:0;stroke:none;stroke-width:0;stroke-linejoin:miter;stroke-miterlimit:4;stroke-dasharray:none;stroke-opacity:1"
       id="rect5576"
       width="20.786636"
       height="30.404329"
       x="218.56992"
       y="601.10602" />
    <rect
       style="opacity:1;fill:#000000;fill-opacity:1;stroke:#000000;stroke-width:1.2;stroke-linejoin:miter;stroke-miterlimit:4;stroke-dasharray:none;stroke-opacity:1"
       id="rect5586"
       width="44.204803"
       height="28.957985"
       x="377.98944"
       y="651.88641" />
    <rect
       style="opacity:1;fill:#000000;fill-opacity:1;stroke:#000000;stroke-width:0.56677037;stroke-linejoin:miter;stroke-miterlimit:4;stroke-dasharray:none;stroke-opacity:1"
       id="rect5590"
       width="28.647514"
       height="30.9342"
       x="-390.75604"
       y="305.03583"
       transform="matrix(-0.00697367,-0.99997568,0.70122479,0.71294024,0,0)"
       inkscape:transform-center-x="3.6743554"
       inkscape:transform-center-y="-2.0952636" />
    <rect
       style="opacity:1;fill:#000000;fill-opacity:1;stroke:#000000;stroke-width:0.56677037;stroke-linejoin:miter;stroke-miterlimit:4;stroke-dasharray:none;stroke-opacity:1"
       id="rect5590-9"
       width="28.647514"
       height="30.9342"
       x="-840.18103"
       y="-1211.231"
       transform="matrix(-0.6991163,0.71500797,0.00402054,-0.99999192,0,0)"
       inkscape:transform-center-x="-1.1339543"
       inkscape:transform-center-y="4.074906" />
  </g>
</svg>
